PathFileType	4	(X/Y/Z)	F:\MotionCapture\20160217\3\Generated_files\EMG_test06-Dynamic.trc
DataRate	CameraRate	NumFrames	NumMarkers	Units	OrigDataRate	OrigDataStartFrame	OrigNumFrames
120.00	120.00	        5	39	mm	120.00	1	        99
Frame#	Time	Top.Head			Front.Head			Rear.Head			R.Shoulder			R.Offset			R.Elbow			R.Wrist			L.Shoulder			L.Elbow			L.Wrist			R.ASIS			L.ASIS			V.Sacral			R.Thigh			R.Knee			R.Shank			R.Ankle			R.Heel			R.Toe			L.Thigh			L.Knee			L.Shank			L.Ankle			L.Heel			L.Toe			R1			R2			R3			R4			R5			R6			R7			L1			L2			L3			L4			L5			L6			L7			V_Mid_ASIS			V_Pelvis_Origin			V_R.Hip_JC			V_L.Hip_JC			V_R.Knee_JC			V_L.Knee_JC			V_R.Ankle_JC			V_L.Ankle_JC			V_Mid_Hip			V_Mid_Shoulder			V_R.Hand			V_L.Hand			V_R.Toe_Offset_Static			V_L.Toe_Offset_Static			V_R.Toe_Offset			V_L.Toe_Offset			
		X1	Y1	Z1	X2	Y2	Z2	X3	Y3	Z3	X4	Y4	Z4	X5	Y5	Z5	X6	Y6	Z6	X7	Y7	Z7	X8	Y8	Z8	X9	Y9	Z9	X10	Y10	Z10	X11	Y11	Z11	X12	Y12	Z12	X13	Y13	Z13	X14	Y14	Z14	X15	Y15	Z15	X16	Y16	Z16	X17	Y17	Z17	X18	Y18	Z18	X19	Y19	Z19	X20	Y20	Z20	X21	Y21	Z21	X22	Y22	Z22	X23	Y23	Z23	X24	Y24	Z24	X25	Y25	Z25	X26	Y26	Z26	X27	Y27	Z27	X28	Y28	Z28	X29	Y29	Z29	X30	Y30	Z30	X31	Y31	Z31	X32	Y32	Z32	X33	Y33	Z33	X34	Y34	Z34	X35	Y35	Z35	X36	Y36	Z36	X37	Y37	Z37	X38	Y38	Z38	X39	Y39	Z39	

1	0.000	2400.83911	91.31464	1722.05212	2311.75562	105.55875	1615.57092	2517.49194	57.52115	1679.38281	2533.54492	252.79564	1431.56921	2624.22510	-28.56574	1281.06177	2581.95947	339.49417	1107.40100	2500.74097	374.23093	862.40643	2458.32446	-151.50819	1434.61157	2435.55298	-213.31361	1096.76526	2291.39746	-166.76973	891.05969	2426.82422	218.62256	962.25323	2391.60669	-70.94864	952.62109	2631.97339	43.49164	951.33740	2382.86914	205.35316	586.68463	2450.12183	245.75890	480.88760	2452.80737	193.35234	241.22540	2515.47656	269.47504	80.03936	2578.74756	207.16600	49.22666	2368.97217	259.27780	47.36019	2365.70605	-16.12030	630.00372	2459.33594	-72.31032	471.37857	2455.63257	6.12129	332.14066	2534.03784	-51.19978	67.36109	2597.06787	6.54336	50.39337	2392.97388	-51.41613	47.34906	2318.64526	241.38345	42.89608	2363.34497	224.03203	54.70773	2458.70654	185.62114	62.03220	2530.85986	179.87251	47.02449	2551.92529	252.33852	50.86263	2476.13501	285.12674	42.45723	2409.30396	303.37576	41.80008	2345.99927	-27.45105	40.91519	2380.06299	-12.43870	50.58910	2474.13257	34.09620	53.38463	2557.24463	36.79690	50.25514	2572.13013	-34.53186	49.04367	2499.77930	-65.32652	41.55245	2436.13184	-79.39597	43.69122																																																	3012.15869	144.63441	-153.65862	
2	0.008	2400.25024	90.67640	1722.40125	2311.17090	104.66787	1615.83936	2517.06421	57.08792	1679.53174	2531.74927	252.60347	1431.67981	2624.29248	-28.27192	1281.38953	2582.57617	340.17007	1108.26709	2504.07861	374.00937	862.26306	2458.82813	-152.34720	1434.40063	2439.39233	-215.79214	1096.62402	2299.17554	-171.57347	887.66870	2426.90259	217.77586	961.82172	2393.08594	-71.47659	952.29401	2632.65186	43.29565	951.42310	2382.74487	204.72705	586.65546	2449.22095	245.11665	480.73276	2452.64990	193.17502	241.28326	2515.45044	269.51077	80.07635	2578.77979	207.15335	49.19865	2368.99707	259.23132	47.40171	2366.22485	-16.67285	629.97394	2459.34937	-72.30569	471.23386	2456.26733	6.01065	332.14780	2534.02930	-51.15772	67.32153	2597.10107	6.55790	50.33216	2392.97339	-51.48522	47.33908	2318.66284	241.34288	42.94101	2363.33105	224.00726	54.68875	2458.73584	185.62152	61.99932	2530.86255	179.85777	47.04935	2551.92773	252.38748	50.99917	2476.08740	285.15027	42.47440	2409.33374	303.24469	41.92668	2346.01123	-27.48778	40.91770	2380.08838	-12.40218	50.58940	2474.07715	34.02861	53.46950	2557.25684	36.80457	50.28226	2572.15601	-34.55468	48.94065	2499.67456	-65.10658	41.30653	2435.64771	-81.05834	45.13858																																																	2318.05200	-28.69109	68.70939	2987.79443	139.75694	-144.15533	
3	0.017	2399.41895	89.24207	1722.68787	2309.82495	102.96632	1616.07288	2516.32593	56.12370	1679.60889	2529.47998	251.83459	1431.89453	2624.36157	-27.72078	1281.71545	2581.51416	338.97375	1108.64661	2506.82056	373.79129	862.00659	2459.33862	-153.17644	1434.30493	2443.74585	-218.37727	1096.80457	2308.12427	-176.93517	884.95111	2426.31128	216.67526	961.55438	2393.10815	-72.13591	952.58435	2633.31421	43.35651	951.56891	2382.67358	204.03191	586.53387	2449.55322	245.32242	481.12280	2452.63452	193.06584	241.25208	2515.36816	269.39569	80.08751	2578.74365	207.18321	49.24171	2368.98730	259.18692	47.39304	2367.50732	-17.78493	630.15765	2459.57275	-72.51538	471.26602	2456.45068	5.98964	332.18839	2534.06519	-51.26114	67.31989	2597.08276	6.60032	50.28064	2393.07910	-51.48976	47.42500	2318.65723	241.30574	42.93425	2363.37598	223.85883	54.76316	2458.76733	185.48381	61.94652	2530.97998	179.80824	47.16702	2551.91357	252.40921	51.02136	2476.04102	285.14197	42.57609	2409.26709	303.15976	42.07550	2346.07495	-27.55979	40.95677	2380.11304	-12.44701	50.61983	2474.22754	34.03699	53.63881	2557.23462	36.80054	50.19984	2572.18823	-34.54643	48.93142	2499.74683	-65.16833	41.39467	2435.68481	-81.08654	45.14768																																																	2317.93774	-28.65524	68.70569	2989.13745	139.58807	-144.49734	
4	0.025	2398.80957	87.73271	1722.69153	2309.42896	100.81888	1616.19177	2515.76392	55.62692	1679.77563	2527.21411	251.34099	1432.20715	2624.43408	-27.32968	1282.00513	2581.68213	339.25845	1110.15454	2509.74365	373.44318	861.85132	2459.64233	-153.94496	1434.05859	2447.64868	-220.97345	1097.14819	2316.33008	-180.88823	881.88733	2426.11743	216.31911	961.61243	2395.14697	-73.26489	952.41559	2633.56128	43.81998	951.74731	2382.37573	203.03374	586.66278	2448.69873	244.81200	481.03815	2452.90308	192.96448	241.34088	2515.37280	269.41602	80.12724	2578.75098	207.17543	49.26829	2368.98853	259.20090	47.41482	2368.28613	-18.25436	630.20703	2459.75366	-72.88754	471.03778	2455.68677	5.99309	332.36758	2533.53589	-50.92742	66.66901	2597.10620	6.62689	50.22635	2393.10083	-51.54981	47.44529	2318.63550	241.29553	42.99158	2363.31641	223.82489	54.76408	2458.60059	185.16895	62.28825	2530.91284	179.92456	47.05932	2551.83691	252.39085	51.05436	2475.99023	284.93460	42.57018	2409.14648	303.10727	42.12844	2346.15796	-27.58000	41.05798	2380.16772	-12.49890	50.68642	2474.03369	34.15208	53.68478	2557.27734	36.84348	50.28384	2572.17578	-34.57833	48.88982	2499.73267	-65.19986	41.35469	2436.15601	-79.40427	43.69535	
5	0.033	2397.89697	86.45125	1722.71326	2308.59253	99.33781	1615.98267	2514.96875	54.86222	1679.77686	2525.50073	251.23195	1432.60388	2624.46875	-27.06942	1282.21924	2581.68848	339.09579	1110.33728	2512.24023	372.71198	861.59863	2460.16577	-154.62302	1433.88416	2451.29858	-223.76099	1097.23462	2324.20581	-185.93883	878.93933	2425.50488	215.07173	961.67328	2396.35791	-74.56655	951.84503	2634.03540	43.41571	951.97656	2382.62012	202.34525	586.67017	2448.34717	244.59860	481.15002	2452.68237	192.86021	241.34082	2515.24585	269.29135	80.05286	2578.70996	207.21082	49.28637	2368.96387	259.13983	47.38913	2368.41846	-18.66892	630.14307	2459.89697	-73.18372	470.76855	2455.54077	5.66964	332.37845	2533.44263	-50.87345	66.51872	2597.09351	6.67813	50.18430	2393.14111	-51.64724	47.41380	2318.62085	241.24942	42.94888	2363.34082	223.79834	54.75029	2458.66187	185.10814	62.24662	2530.86938	179.88481	46.90329	2551.81177	252.40344	51.13531	2475.94849	285.00415	42.63875	2409.23242	302.95819	42.19071	2346.12134	-27.63062	40.95728	2380.17944	-12.56493	50.60610	2474.16284	33.96483	53.71582	2557.26831	36.91680	50.26018	2572.19824	-34.59616	48.86015	2499.75928	-65.20570	41.40291	2435.68872	-81.11098	45.08238																																																	2317.98340	-28.85222	68.73689	2989.21240	139.60591	-144.66792	
